<svg xmlns="http://www.w3.org/2000/svg" xmlns:xlink="http://www.w3.org/1999/xlink" width="500" zoomAndPan="magnify" viewBox="0 0 375 374.999991" height="500" preserveAspectRatio="xMidYMid meet" version="1.0"><defs><g/><clipPath id="id1"><path d="M 43 154.257812 L 69 154.257812 L 69 180 L 43 180 Z M 43 154.257812 " clip-rule="nonzero"/></clipPath><clipPath id="id2"><path d="M 70 154.257812 L 96 154.257812 L 96 180 L 70 180 Z M 70 154.257812 " clip-rule="nonzero"/></clipPath><clipPath id="id3"><path d="M 95 183 L 104.953125 183 L 104.953125 204 L 95 204 Z M 95 183 " clip-rule="nonzero"/></clipPath><clipPath id="id4"><path d="M 37.859375 185 L 44 185 L 44 193 L 37.859375 193 Z M 37.859375 185 " clip-rule="nonzero"/></clipPath><clipPath id="id5"><path d="M 53 208 L 81 208 L 81 220.574219 L 53 220.574219 Z M 53 208 " clip-rule="nonzero"/></clipPath></defs><g clip-path="url(#id1)"><path fill="#eaa860" d="M 55.835938 172.578125 C 52.609375 172.578125 49.980469 169.960938 49.980469 166.746094 C 49.980469 163.53125 52.609375 160.914062 55.835938 160.914062 C 59.066406 160.914062 61.695312 163.53125 61.695312 166.746094 C 61.695312 169.960938 59.066406 172.578125 55.835938 172.578125 Z M 55.835938 154.253906 C 48.921875 154.253906 43.292969 159.855469 43.292969 166.746094 C 43.292969 173.632812 48.921875 179.238281 55.835938 179.238281 C 62.753906 179.238281 68.382812 173.632812 68.382812 166.746094 C 68.382812 159.855469 62.753906 154.253906 55.835938 154.253906 " fill-opacity="1" fill-rule="nonzero"/></g><g clip-path="url(#id2)"><path fill="#eaa860" d="M 82.734375 172.578125 C 79.503906 172.578125 76.878906 169.960938 76.878906 166.746094 C 76.878906 163.53125 79.503906 160.914062 82.734375 160.914062 C 85.960938 160.914062 88.589844 163.53125 88.589844 166.746094 C 88.589844 169.960938 85.960938 172.578125 82.734375 172.578125 Z M 82.734375 154.253906 C 75.816406 154.253906 70.191406 159.855469 70.191406 166.746094 C 70.191406 173.632812 75.816406 179.238281 82.734375 179.238281 C 89.648438 179.238281 95.277344 173.632812 95.277344 166.746094 C 95.277344 159.855469 89.648438 154.253906 82.734375 154.253906 " fill-opacity="1" fill-rule="nonzero"/></g><g clip-path="url(#id3)"><path fill="#eaa860" d="M 95.277344 198.824219 L 104.925781 203.632812 L 104.925781 183.675781 L 95.277344 188.480469 L 95.277344 198.824219 " fill-opacity="1" fill-rule="nonzero"/></g><g clip-path="url(#id4)"><path fill="#eaa860" d="M 37.867188 192.691406 L 43.175781 192.691406 L 43.175781 185.003906 L 37.867188 185.003906 L 37.867188 192.691406 " fill-opacity="1" fill-rule="nonzero"/></g><g clip-path="url(#id5)"><path fill="#eaa860" d="M 70.988281 208.070312 L 63.601562 208.070312 L 54.351562 217.28125 C 53.601562 218.03125 53.601562 219.246094 54.351562 219.996094 C 54.730469 220.375 55.222656 220.5625 55.71875 220.5625 C 56.210938 220.5625 56.703125 220.375 57.082031 219.996094 L 65.367188 211.746094 L 65.367188 218.640625 C 65.367188 219.699219 66.230469 220.5625 67.296875 220.5625 C 68.359375 220.5625 69.222656 219.699219 69.222656 218.640625 L 69.222656 211.746094 L 77.511719 219.996094 C 77.886719 220.375 78.378906 220.5625 78.875 220.5625 C 79.367188 220.5625 79.863281 220.375 80.238281 219.996094 C 80.992188 219.246094 80.992188 218.03125 80.238281 217.28125 L 70.988281 208.070312 " fill-opacity="1" fill-rule="nonzero"/></g><path fill="#eaa860" d="M 51.859375 195.578125 L 63.4375 195.578125 L 63.4375 199.417969 L 51.859375 199.417969 Z M 45.101562 184.042969 L 45.101562 206.148438 L 93.347656 206.148438 L 93.347656 181.160156 L 45.101562 181.160156 L 45.101562 184.042969 " fill-opacity="1" fill-rule="nonzero"/><path fill="#eaa860" d="M 55.835938 163.796875 C 54.203125 163.796875 52.875 165.117188 52.875 166.746094 C 52.875 168.371094 54.203125 169.695312 55.835938 169.695312 C 57.472656 169.695312 58.800781 168.371094 58.800781 166.746094 C 58.800781 165.117188 57.472656 163.796875 55.835938 163.796875 " fill-opacity="1" fill-rule="nonzero"/><path fill="#eaa860" d="M 82.734375 163.796875 C 81.101562 163.796875 79.773438 165.117188 79.773438 166.746094 C 79.773438 168.371094 81.101562 169.695312 82.734375 169.695312 C 84.367188 169.695312 85.695312 168.371094 85.695312 166.746094 C 85.695312 165.117188 84.367188 163.796875 82.734375 163.796875 " fill-opacity="1" fill-rule="nonzero"/><g fill="#ffffff" fill-opacity="1"><g transform="translate(128.789621, 180.384305)"><g><path d="M 6.863281 0.273438 C 9.824219 0.273438 12.152344 -1.710938 12.699219 -4.671875 L 10.082031 -4.671875 C 9.652344 -3.167969 8.4375 -2.207031 6.863281 -2.207031 C 4.828125 -2.207031 3.304688 -3.816406 3.304688 -5.972656 C 3.304688 -8.128906 4.828125 -9.757812 6.863281 -9.757812 C 8.371094 -9.757812 9.570312 -8.867188 10.066406 -7.464844 L 12.648438 -7.464844 C 12.101562 -10.304688 9.773438 -12.238281 6.863281 -12.238281 C 3.335938 -12.238281 0.667969 -9.535156 0.667969 -5.972656 C 0.667969 -2.429688 3.335938 0.273438 6.863281 0.273438 Z M 6.863281 0.273438 "/></g></g></g><g fill="#ffffff" fill-opacity="1"><g transform="translate(150.547429, 180.384305)"><g><path d="M 1.371094 0 L 3.953125 0 L 3.953125 -11.980469 L 1.371094 -11.980469 Z M 1.371094 0 "/></g></g></g><g fill="#ffffff" fill-opacity="1"><g transform="translate(164.449348, 180.384305)"><g><path d="M 8.953125 -11.980469 L 8.953125 -4.671875 L 3.699219 -11.980469 L 1.371094 -11.980469 L 1.371094 0 L 3.902344 0 L 3.902344 -7.480469 L 9.328125 0 L 11.503906 0 L 11.503906 -11.980469 Z M 8.953125 -11.980469 "/></g></g></g><g fill="#ffffff" fill-opacity="1"><g transform="translate(185.881975, 180.384305)"><g><path d="M 3.953125 -2.394531 L 3.953125 -4.859375 L 8.113281 -4.859375 L 8.113281 -7.207031 L 3.953125 -7.207031 L 3.953125 -9.585938 L 8.558594 -9.585938 L 8.558594 -11.980469 L 1.371094 -11.980469 L 1.371094 0 L 8.746094 0 L 8.746094 -2.394531 Z M 3.953125 -2.394531 "/></g></g></g><g fill="#ffffff" fill-opacity="1"><g transform="translate(204.011354, 180.384305)"><g/></g></g><g fill="#ffffff" fill-opacity="1"><g transform="translate(216.663863, 180.384305)"><g><path d="M 9.621094 -11.980469 L 0.359375 -11.980469 L 0.359375 -9.570312 L 3.699219 -9.570312 L 3.699219 0 L 6.28125 0 L 6.28125 -9.570312 L 9.621094 -9.570312 Z M 9.621094 -11.980469 "/></g></g></g><g fill="#ffffff" fill-opacity="1"><g transform="translate(235.221128, 180.384305)"><g><path d="M 3.953125 -2.394531 L 3.953125 -4.859375 L 8.113281 -4.859375 L 8.113281 -7.207031 L 3.953125 -7.207031 L 3.953125 -9.585938 L 8.558594 -9.585938 L 8.558594 -11.980469 L 1.371094 -11.980469 L 1.371094 0 L 8.746094 0 L 8.746094 -2.394531 Z M 3.953125 -2.394531 "/></g></g></g><g fill="#ffffff" fill-opacity="1"><g transform="translate(253.350508, 180.384305)"><g><path d="M 9.3125 0 L 12.136719 0 L 7.292969 -11.980469 L 4.84375 -11.980469 L 0.136719 0 L 2.894531 0 L 3.714844 -2.257812 L 8.472656 -2.257812 Z M 6.09375 -8.816406 L 7.667969 -4.519531 L 4.519531 -4.519531 Z M 6.09375 -8.816406 "/></g></g></g><g fill="#ffffff" fill-opacity="1"><g transform="translate(274.201209, 180.384305)"><g><path d="M 9.621094 -11.980469 L 0.359375 -11.980469 L 0.359375 -9.570312 L 3.699219 -9.570312 L 3.699219 0 L 6.28125 0 L 6.28125 -9.570312 L 9.621094 -9.570312 Z M 9.621094 -11.980469 "/></g></g></g><g fill="#ffffff" fill-opacity="1"><g transform="translate(292.758474, 180.384305)"><g><path d="M 7.960938 0 L 10.851562 0 L 8.199219 -4.519531 C 9.535156 -5.167969 10.390625 -6.4375 10.390625 -8.011719 C 10.390625 -10.320312 8.59375 -11.980469 6.195312 -11.980469 L 1.371094 -11.980469 L 1.371094 0 L 3.953125 0 L 3.953125 -4.074219 L 5.613281 -4.074219 Z M 3.953125 -9.585938 L 6.023438 -9.585938 C 7.121094 -9.585938 7.753906 -8.917969 7.753906 -8.027344 C 7.753906 -7.121094 7.121094 -6.46875 6.023438 -6.46875 L 3.953125 -6.46875 Z M 3.953125 -9.585938 "/></g></g></g><g fill="#ffffff" fill-opacity="1"><g transform="translate(312.63361, 180.384305)"><g><path d="M 7.050781 0.273438 C 10.699219 0.273438 13.417969 -2.414062 13.417969 -5.992188 C 13.417969 -9.550781 10.699219 -12.238281 7.050781 -12.238281 C 3.390625 -12.238281 0.652344 -9.535156 0.652344 -5.992188 C 0.652344 -2.429688 3.390625 0.273438 7.050781 0.273438 Z M 7.050781 -2.175781 C 4.914062 -2.175781 3.285156 -3.835938 3.285156 -5.992188 C 3.285156 -8.148438 4.914062 -9.789062 7.050781 -9.789062 C 9.191406 -9.789062 10.785156 -8.164062 10.785156 -5.992188 C 10.785156 -3.816406 9.191406 -2.175781 7.050781 -2.175781 Z M 7.050781 -2.175781 "/></g></g></g><g fill="#eaa860" fill-opacity="1"><g transform="translate(185.050805, 205.043589)"><g><path d="M 11.402344 0 L 10.089844 -8.519531 L 8.238281 -8.519531 L 5.925781 -3.285156 L 3.613281 -8.519531 L 1.777344 -8.519531 L 0.4375 0 L 2.3125 0 L 3.152344 -5.550781 L 5.695312 -0.0117188 L 6.144531 -0.0117188 L 8.691406 -5.550781 L 9.53125 0 Z M 11.402344 0 "/></g></g></g><g fill="#eaa860" fill-opacity="1"><g transform="translate(206.655094, 205.043589)"><g><path d="M 6.621094 0 L 8.628906 0 L 5.183594 -8.519531 L 3.445312 -8.519531 L 0.0976562 0 L 2.058594 0 L 2.640625 -1.605469 L 6.023438 -1.605469 Z M 4.332031 -6.269531 L 5.453125 -3.214844 L 3.214844 -3.214844 Z M 4.332031 -6.269531 "/></g></g></g><g fill="#eaa860" fill-opacity="1"><g transform="translate(225.132746, 205.043589)"><g><path d="M 6.839844 -8.519531 L 0.253906 -8.519531 L 0.253906 -6.804688 L 2.628906 -6.804688 L 2.628906 0 L 4.464844 0 L 4.464844 -6.804688 L 6.839844 -6.804688 Z M 6.839844 -8.519531 "/></g></g></g><g fill="#eaa860" fill-opacity="1"><g transform="translate(241.980174, 205.043589)"><g><path d="M 5.160156 -9.273438 C 6.023438 -9.273438 6.558594 -9.90625 6.558594 -10.929688 L 6.558594 -11.0625 L 5.574219 -11.0625 L 5.574219 -10.953125 C 5.574219 -10.648438 5.390625 -10.453125 5.136719 -10.453125 C 4.90625 -10.453125 4.722656 -10.578125 4.527344 -10.722656 C 4.261719 -10.917969 3.941406 -11.125 3.457031 -11.125 C 2.566406 -11.125 2.042969 -10.480469 2.042969 -9.46875 L 2.042969 -9.335938 L 3.03125 -9.335938 L 3.03125 -9.433594 C 3.03125 -9.722656 3.238281 -9.917969 3.46875 -9.917969 C 3.625 -9.917969 3.808594 -9.808594 4.003906 -9.6875 C 4.308594 -9.503906 4.660156 -9.273438 5.160156 -9.273438 Z M 6.621094 0 L 8.628906 0 L 5.183594 -8.519531 L 3.445312 -8.519531 L 0.0976562 0 L 2.058594 0 L 2.640625 -1.605469 L 6.023438 -1.605469 Z M 4.332031 -6.269531 L 5.453125 -3.214844 L 3.214844 -3.214844 Z M 4.332031 -6.269531 "/></g></g></g><g fill="#eaa860" fill-opacity="1"><g transform="translate(260.457827, 205.043589)"><g><path d="M 5.015625 0.195312 C 7.605469 0.195312 9.542969 -1.714844 9.542969 -4.261719 C 9.542969 -6.792969 7.605469 -8.703125 5.015625 -8.703125 C 2.410156 -8.703125 0.460938 -6.777344 0.460938 -4.261719 C 0.460938 -1.726562 2.410156 0.195312 5.015625 0.195312 Z M 5.015625 -1.546875 C 3.492188 -1.546875 2.335938 -2.726562 2.335938 -4.261719 C 2.335938 -5.792969 3.492188 -6.960938 5.015625 -6.960938 C 6.535156 -6.960938 7.667969 -5.804688 7.667969 -4.261719 C 7.667969 -2.714844 6.535156 -1.546875 5.015625 -1.546875 Z M 5.015625 -1.546875 "/></g></g></g></svg>